<?xml version="1.0" encoding="UTF-8"?>
<svg xmlns="http://www.w3.org/2000/svg" viewBox="0 0 512 512" width="512" height="512">
  <rect x="0" y="0" width="512" height="512" rx="115" fill="#1E1E1E"/>
  <!-- Path de la M con trazos gruesos y curvas suaves -->
  <path d="M 110 380 
           L 110 150 
           Q 110 132 128 132 
           L 162 132 
           Q 174 132 180 142 
           L 256 268 
           L 332 142 
           Q 338 132 350 132 
           L 384 132 
           Q 402 132 402 150 
           L 402 380 
           Q 402 392 390 392 
           L 358 392 
           Q 346 392 346 380 
           L 346 232 
           L 286 332 
           Q 280 342 268 342 
           L 244 342 
           Q 232 342 226 332 
           L 166 232 
           L 166 380 
           Q 166 392 154 392 
           L 122 392 
           Q 110 392 110 380 Z" 
        fill="#FFFFFF"/>
  <!-- Punto naranja en la base, simbolizando notificación de pedido -->
  <circle cx="256" cy="408" r="22" fill="#FF6B35"/>
</svg>